<?xml version="1.0" encoding="UTF-8"?>
<svg id="Layer_1" xmlns="http://www.w3.org/2000/svg" version="1.1" viewBox="0 0 240 50">
  <!-- Generator: Adobe Illustrator 30.2.1, SVG Export Plug-In . SVG Version: 2.1.1 Build 1)  -->
  <defs>
    <style>
      .st0 {
        fill: #ffc337;
        stroke: #000;
        stroke-width: 3px;
      }

      .st0, .st1, .st2 {
        stroke-miterlimit: 10;
      }

      .st1 {
        stroke-width: .4px;
      }

      .st1, .st2 {
        fill: #231f20;
        fill-rule: evenodd;
        stroke: #231f20;
      }

      .st2 {
        stroke-width: .2px;
      }
    </style>
  </defs>
  <circle class="st0" cx="28" cy="25.3" r="22.9"/>
  <g>
    <path class="st1" d="M25.4,39.1c0,.2-.2.4-.5.4s-.5-.2-.5-.4.2-.5.5-.5.5.3.5.5h0Z"/>
    <path class="st1" d="M26.9,39c0,.3-.2.5-.5.5s-.5-.2-.5-.5.2-.5.5-.5c.3,0,.5.3.5.5h0Z"/>
    <path class="st1" d="M28.4,39c0,.3-.2.5-.5.5s-.5-.2-.5-.5.2-.5.5-.5.5.2.5.5h0Z"/>
    <path class="st1" d="M29.9,38.9c0,.2-.2.5-.5.5s-.5-.2-.5-.5.2-.5.5-.5.5.2.5.5h0Z"/>
    <path class="st1" d="M31.3,38.8c0,.3-.2.5-.5.5s-.5-.2-.5-.5.2-.5.5-.5.5.2.5.5h0Z"/>
    <path class="st2" d="M32.4,36.1c0,.6-.5,1-1,1s-1-.5-1-1,.5-1,1-1,1,.5,1,1h0Z"/>
    <path class="st2" d="M33.1,33.6c0,.6-.5,1-1,1s-1-.4-1-1,.5-1,1-1,1,.4,1,1h0Z"/>
    <path class="st2" d="M34.2,31.2c0,.6-.5,1-1,1s-1-.4-1-1,.5-1,1-1c.7,0,1,.5,1,1h0Z"/>
    <path class="st2" d="M36,28.9c0,.6-.5,1-1,1s-1-.5-1-1,.5-1,1-1,1,.5,1,1h0Z"/>
    <path class="st2" d="M37.2,26.5c0,.6-.5,1-1,1s-1-.4-1-1,.5-1,1-1,1,.4,1,1h0Z"/>
    <path class="st2" d="M38,23.7c0,.6-.5,1-1,1s-1-.5-1-1,.5-1,1-1,1,.5,1,1h0Z"/>
    <path class="st2" d="M37.7,21c0,.6-.5,1-1,1s-1-.4-1-1,.4-1,1-1,1,.4,1,1h0Z"/>
    <path class="st2" d="M37,18.5c0,.6-.5,1-1,1s-1-.4-1-1,.5-1,1-1c.5.1,1,.4,1,1h0Z"/>
    <path class="st2" d="M35.6,16.5c0,.6-.5,1-1,1s-1-.5-1-1,.5-1,1-1,1,.4,1,1h0Z"/>
    <path class="st2" d="M33.7,14.8c0,.6-.5,1-1,1s-1-.5-1-1,.5-1,1-1,1,.5,1,1h0Z"/>
    <path class="st2" d="M31.3,13.8c0,.6-.5,1-1,1s-1-.5-1-1,.5-1,1-1,1,.4,1,1h0Z"/>
    <path class="st2" d="M28.9,13.5c0,.6-.5,1-1,1s-1-.4-1-1,.5-1,1-1,1,.5,1,1h0Z"/>
    <path class="st2" d="M26.5,13.9c0,.6-.5,1-1,1s-1-.4-1-1,.5-1,1-1,1,.4,1,1h0Z"/>
    <path class="st2" d="M24.1,14.9c0,.6-.5,1-1,1s-1-.5-1-1,.5-1,1-1,1,.5,1,1h0Z"/>
    <path class="st2" d="M22.2,16.6c0,.6-.5,1-1,1s-1-.5-1-1,.4-1,1-1,1,.4,1,1h0Z"/>
    <path class="st2" d="M20.8,18.6c0,.6-.5,1-1,1s-1-.5-1-1,.4-1,1-1,1,.4,1,1h0Z"/>
    <path class="st2" d="M20,21c0,.6-.4,1-1,1s-1-.5-1-1,.5-1,1-1c.6.1,1,.6,1,1h0Z"/>
    <path class="st2" d="M19.9,23.9c0,.6-.5,1-1,1s-1-.5-1-1,.5-1,1-1,1,.4,1,1h0Z"/>
    <path class="st2" d="M20.7,26.4c0,.6-.5,1-1,1s-1-.4-1-1,.5-1,1-1,1,.5,1,1h0Z"/>
    <path class="st2" d="M21.9,28.9c0,.6-.5,1-1,1s-1-.5-1-1,.5-1,1-1,1,.4,1,1h0Z"/>
    <path class="st2" d="M23.7,31.2c0,.6-.5,1-1,1s-1-.5-1-1,.5-1,1-1,1,.5,1,1h0Z"/>
    <path class="st2" d="M24.8,33.5c0,.6-.5,1-1,1s-1-.5-1-1,.5-1,1-1,1,.5,1,1h0Z"/>
    <path class="st2" d="M25.5,36.1c0,.6-.5,1-1,1s-1-.5-1-1,.5-1,1-1,1,.4,1,1h0Z"/>
    <g>
      <path class="st1" d="M39.3,31.1c0,.2-.2.5-.5.5s-.5-.2-.5-.5.2-.5.5-.5c.3.1.5.3.5.5h0Z"/>
      <path class="st1" d="M40.6,31.8c0,.3-.2.5-.5.5s-.5-.2-.5-.5.2-.5.5-.5.5.2.5.5h0Z"/>
      <path class="st1" d="M41.8,32.5c0,.3-.2.5-.5.5s-.5-.2-.5-.5.2-.5.5-.5c.3,0,.5.3.5.5h0Z"/>
      <path class="st1" d="M41.3,26.9c0,.2,0,.5-.3.6-.2.1-.5,0-.6-.3,0-.2,0-.5.3-.6.3,0,.5.1.6.3h0Z"/>
      <path class="st1" d="M42.8,27.2c0,.2,0,.5-.3.6-.2.1-.5,0-.6-.3,0-.2,0-.5.3-.6.3-.1.5,0,.6.3h0Z"/>
      <path class="st1" d="M41.8,21.1c0,.2,0,.5-.3.6-.2.1-.5,0-.6-.3,0-.2,0-.5.3-.6.3,0,.6.2.6.3h0Z"/>
      <path class="st1" d="M43.3,21c0,.2,0,.5-.3.6-.2.1-.5,0-.6-.3,0-.2,0-.5.3-.6s.5,0,.6.3h0Z"/>
      <path class="st1" d="M44.7,20.7c0,.2,0,.5-.3.6-.2.1-.5,0-.6-.3,0-.2,0-.5.3-.6.2-.1.5,0,.6.3h0Z"/>
      <path class="st1" d="M40.4,16c0,.2,0,.5-.3.6-.2.1-.5,0-.6-.3,0-.2,0-.5.3-.6.3-.1.5,0,.6.3h0Z"/>
      <path class="st1" d="M41.6,15.2c0,.2,0,.5-.3.6-.2.1-.5,0-.6-.3,0-.2,0-.5.3-.6.3,0,.6.1.6.3h0Z"/>
      <path class="st1" d="M42.9,14.5c0,.2,0,.5-.3.6-.2.1-.5,0-.6-.3,0-.2,0-.5.3-.6.3,0,.5,0,.6.3h0Z"/>
      <path class="st1" d="M37.4,12c0,.2,0,.5-.3.6-.2.1-.5,0-.6-.3,0-.2,0-.5.3-.6.4,0,.5.1.6.3h0Z"/>
      <path class="st1" d="M38.4,10.9c0,.2,0,.5-.3.6-.2.1-.5,0-.6-.3,0-.2,0-.5.3-.6.3,0,.5.2.6.3h0Z"/>
      <path class="st1" d="M39.4,9.8c0,.2,0,.5-.3.6-.2.1-.5,0-.6-.3,0-.2,0-.5.3-.6.2,0,.5.1.6.3h0Z"/>
      <path class="st1" d="M33.2,9.3c.1.2,0,.5-.3.6-.2.1-.5,0-.6-.3-.1-.2,0-.5.3-.6.3,0,.5.1.6.3h0Z"/>
      <path class="st1" d="M33.8,7.9c.1.2,0,.5-.3.6-.2.1-.5,0-.6-.3-.1-.2,0-.5.3-.6.2,0,.5,0,.6.3h0Z"/>
      <path class="st1" d="M34.2,6.6c.1.2,0,.5-.3.6-.2,0-.5,0-.6-.3-.1-.2,0-.5.3-.6.3,0,.5.1.6.3h0Z"/>
      <path class="st1" d="M28,8.7c.1.2,0,.5-.3.6-.2.1-.5,0-.6-.3-.1-.2,0-.5.3-.6.3,0,.6.1.6.3h0Z"/>
      <path class="st1" d="M28,7.3c.1.2,0,.5-.3.6-.2,0-.5,0-.6-.3-.1-.2,0-.5.3-.6.3,0,.6,0,.6.3h0Z"/>
      <path class="st1" d="M28,5.9c.1.2,0,.5-.3.6-.2,0-.5,0-.6-.3-.1-.2,0-.5.3-.6s.6,0,.6.3h0Z"/>
      <path class="st1" d="M22.6,7c.1.2,0,.5-.3.6-.2,0-.5,0-.6-.3-.1-.2,0-.5.3-.6s.6,0,.6.3h0Z"/>
      <path class="st1" d="M23.2,8.3c.1.2,0,.5-.3.6-.2.1-.5,0-.6-.3-.1-.2,0-.5.3-.6.2,0,.5,0,.6.3h0Z"/>
      <path class="st1" d="M23.7,9.7c.1.2,0,.5-.3.6-.2.1-.5,0-.6-.3-.1-.2,0-.5.3-.6.2,0,.5,0,.6.3h0Z"/>
      <path class="st1" d="M17.5,10.2c.1.2,0,.5-.3.6-.2.1-.5,0-.6-.3-.1-.2,0-.5.3-.6.2,0,.5.1.6.3h0Z"/>
      <path class="st1" d="M18.4,11.2c.1.2,0,.5-.3.6-.2.1-.5,0-.6-.3-.1-.2,0-.5.3-.6.3,0,.5.1.6.3h0Z"/>
      <path class="st1" d="M19.4,12.4c.1.2,0,.5-.3.6-.2.1-.5,0-.6-.3-.1-.2,0-.5.3-.6.2,0,.5.1.6.3h0Z"/>
      <path class="st1" d="M16.5,16.3c.1.2,0,.5-.3.6-.2.1-.5,0-.6-.3-.1-.2,0-.5.3-.6.2,0,.5.1.6.3h0Z"/>
      <path class="st1" d="M15,21.5c.1.2,0,.5-.3.6-.2.1-.5,0-.6-.3-.1-.2,0-.5.3-.6.2-.1.5,0,.6.3h0Z"/>
      <path class="st1" d="M15.5,27.3c.1.2,0,.5-.3.6-.2.1-.5,0-.6-.3-.1-.2,0-.5.3-.6s.5,0,.6.3h0Z"/>
      <path class="st1" d="M17.5,31.2c.1.2,0,.5-.3.6-.2.1-.5,0-.6-.3-.1-.2,0-.5.3-.6.3,0,.5.2.6.3h0Z"/>
      <path class="st1" d="M16.3,32c.1.2,0,.5-.3.6-.2,0-.5,0-.6-.3-.1-.2,0-.5.3-.6.3,0,.5.1.6.3h0Z"/>
      <path class="st1" d="M15,32.7c.1.2,0,.5-.3.6-.2,0-.5,0-.6-.3-.1-.2,0-.5.3-.6.3,0,.5,0,.6.3h0Z"/>
      <path class="st1" d="M14,27.5c.1.2,0,.5-.3.6-.2.1-.5,0-.6-.3-.1-.2,0-.5.3-.6.3,0,.5,0,.6.3h0Z"/>
      <path class="st1" d="M12.6,27.8c.1.2,0,.5-.3.6-.2.1-.5,0-.6-.3-.1-.2,0-.5.3-.6s.6,0,.6.3h0Z"/>
      <path class="st1" d="M13.6,21.2c.1.2,0,.5-.3.6-.2.1-.5,0-.6-.3-.1-.2,0-.5.3-.6s.5,0,.6.3h0Z"/>
      <path class="st1" d="M12.1,21c.1.2,0,.5-.3.6-.2.1-.5,0-.6-.3-.1-.2,0-.5.3-.6.3,0,.6,0,.6.3h0Z"/>
      <path class="st1" d="M15.2,15.6c.1.2,0,.5-.3.6-.2.1-.5,0-.6-.3-.1-.2,0-.5.3-.6.2-.1.5,0,.6.3h0Z"/>
      <path class="st1" d="M13.9,14.8c.1.2,0,.5-.3.6-.2.1-.5,0-.6-.3-.1-.2,0-.5.3-.6.3,0,.5.1.6.3h0Z"/>
      <path class="st1" d="M44.2,27.4c0,.2,0,.5-.3.6-.2.1-.5,0-.6-.3s0-.5.3-.6c.3,0,.5.1.6.3h0Z"/>
    </g>
    <path class="st1" d="M25.2,40.9c0,.2-.2.5-.5.5s-.5-.2-.5-.5.2-.5.5-.5.5.2.5.5h0Z"/>
    <path class="st1" d="M26.7,40.8c0,.3-.2.5-.5.5s-.5-.2-.5-.5.2-.4.5-.4c.3,0,.5.2.5.4h0Z"/>
    <path class="st1" d="M28.1,40.7c0,.2-.2.5-.5.5s-.5-.2-.5-.5.2-.5.5-.5c.3,0,.5.3.5.5h0Z"/>
    <path class="st1" d="M29.6,40.6c0,.3-.2.5-.5.5s-.5-.2-.5-.5.2-.5.5-.5c.3.1.5.3.5.5h0Z"/>
    <path class="st1" d="M31,40.6c0,.2-.2.5-.5.5s-.5-.2-.5-.5.2-.5.5-.5.5.2.5.5h0Z"/>
    <path class="st1" d="M25.6,42.6c0,.2-.2.5-.5.5s-.5-.2-.5-.5.2-.5.5-.5.5.2.5.5h0Z"/>
    <path class="st1" d="M27.1,42.5c0,.2-.2.5-.4.5-.3,0-.5-.2-.5-.5s.2-.5.5-.5.4.2.4.5h0Z"/>
    <path class="st1" d="M28.5,42.4c0,.3-.2.5-.5.5s-.5-.2-.5-.5.2-.5.5-.5.5.3.5.5h0Z"/>
    <path class="st1" d="M30.1,42.3c0,.3-.2.5-.5.5s-.5-.2-.5-.5.2-.5.5-.5c.2.1.5.3.5.5h0Z"/>
    <path class="st1" d="M31.5,42.2c0,.3-.2.5-.5.5s-.5-.2-.5-.5.2-.5.5-.5c.3,0,.5.3.5.5h0Z"/>
    <path class="st1" d="M25.4,44.4c0,.2-.2.5-.5.5s-.5-.2-.5-.5.2-.5.5-.5.5.2.5.5h0Z"/>
    <path class="st1" d="M26.9,44.3c0,.2-.2.5-.5.5s-.5-.2-.5-.5.2-.5.5-.5.5.2.5.5h0Z"/>
    <path class="st1" d="M28.3,44.2c0,.2-.2.5-.5.5s-.5-.2-.5-.5.2-.5.5-.5c.3,0,.5.3.5.5h0Z"/>
    <path class="st1" d="M29.8,44.1c0,.3-.2.5-.5.5s-.5-.2-.5-.5.2-.5.5-.5c.3.1.5.3.5.5h0Z"/>
    <path class="st1" d="M31.3,44c0,.3-.2.5-.5.5s-.5-.2-.5-.5.2-.5.5-.5c.3,0,.5.3.5.5h0Z"/>
  </g>
  <g>
    <path d="M86.8,24.1c0,2.3-.4,4.4-1.2,6.3-.8,1.9-2,3.6-3.5,5-1.4,1.3-3,2.3-4.8,2.9-1.8.6-3.6,1-5.7,1s-3.8-.3-5.6-.9c-1.7-.6-3.3-1.5-4.7-2.7-1.5-1.4-2.7-3.1-3.6-5-.9-2-1.3-4.2-1.3-6.6s.4-4.2,1.1-6.1c.7-1.8,1.8-3.5,3.3-4.9,1.3-1.3,2.9-2.4,4.8-3.1,1.8-.7,3.8-1.1,6-1.1s4.1.3,5.9,1c1.8.7,3.4,1.6,4.7,2.9,1.5,1.4,2.7,3.1,3.4,5.1.8,1.9,1.1,4,1.1,6.2ZM79.5,24.4c0-1.4-.2-2.9-.7-4.3-.5-1.4-1.2-2.6-2.2-3.5-.6-.6-1.4-1.1-2.2-1.4-.8-.3-1.7-.5-2.7-.5s-1.9.2-2.7.5c-.8.4-1.6.9-2.3,1.6-.9.9-1.6,2-2.1,3.3s-.7,2.7-.7,4.1.2,3,.7,4.3c.5,1.3,1.2,2.4,2.2,3.3.6.6,1.4,1.1,2.2,1.4.8.4,1.8.5,2.8.5s1.9-.2,2.7-.5,1.6-.8,2.3-1.5c.9-.8,1.6-1.9,2.1-3.2.5-1.3.8-2.7.8-4.1Z"/>
    <path d="M117,30c0,1.6-.5,3-1.5,4.3-1,1.2-2.4,2.2-4.2,2.9-1.5.5-3.2.9-5.2,1.1-2,.2-4.1.3-6.4.3s-2.6,0-4,0c-1.4,0-2.4,0-3.1,0,0-2.4,0-4.7,0-7.2,0-2.4,0-5.1,0-7.9s0-6.1,0-9c0-2.9,0-4.5,0-4.6.2,0,1,0,2.4,0,1.3,0,2.8,0,4.3,0,2.3,0,4.3,0,5.8.2s3,.4,4.2.8c1.6.5,2.8,1.2,3.8,2.3.9,1,1.4,2.3,1.4,3.8s-.4,2.6-1.2,3.7c-.8,1.1-1.9,1.9-3.2,2.5v.2c.8.1,1.6.3,2.3.6.7.3,1.4.7,2,1.2.8.6,1.5,1.4,1.9,2.3.4.9.6,1.9.6,3ZM109.7,29.2c0-.7-.1-1.2-.4-1.7-.3-.5-.6-.9-1.1-1.3-.4-.3-.9-.6-1.5-.8s-1.3-.3-2.1-.3-1,0-1.4,0c-.4,0-.6,0-.7,0l-.6-2.7c.8,0,1.5-.1,2.1-.3.7-.2,1.2-.4,1.7-.8.5-.4.9-.8,1.2-1.3.3-.5.5-1.2.5-1.9s-.2-1.2-.5-1.8c-.3-.5-.8-1-1.4-1.3-.5-.2-1.1-.4-1.8-.5-.7-.1-1.4-.2-2.2-.2s-.8,0-1.2,0c-.4,0-.7,0-.8,0,0,1.4,0,3.1,0,4.8,0,1.8,0,3.3,0,4.7s0,3.3,0,5.8c0,2.5,0,3.8,0,4,.2,0,.5,0,.9,0s.9,0,1.4,0c1.1,0,2.2,0,3.2-.2,1-.1,1.9-.4,2.6-.8.7-.3,1.2-.8,1.5-1.4.4-.6.6-1.3.6-2.1Z"/>
    <path d="M129.8,38.5h-7.1c0-1.2,0-3,0-5.3,0-2.3,0-5.4,0-9.4s0-3.8,0-6.3c0-2.5,0-5.1,0-7.8h7.1c0,2,0,4.2,0,6.8s0,4.8,0,6.8c0,4.1,0,7.2,0,9.4s0,4.1,0,5.8Z"/>
    <path d="M157.2,38.5c-.3,0-1.8,0-4.5,0-2.6,0-4.7,0-6.2,0s-3.7,0-6,0c-2.2,0-3.6,0-4.1,0l-1.7-4c1.1-.5,2.2-1,3.4-1.6,1.1-.6,2.3-1.2,3.4-1.9,1.7-1,2.9-1.9,3.7-2.8.8-.9,1.2-1.9,1.2-3s-.2-1.4-.6-1.9-1-.9-1.7-1.2c-.6-.2-1.4-.4-2.2-.5-.9-.1-1.8-.2-2.7-.2s-1.2,0-1.8,0c-.6,0-1.1,0-1.5,0l.7-5.1c.4,0,1,0,1.6,0,.6,0,1.2,0,1.8,0,1.6,0,3.2,0,4.5.3,1.4.2,2.6.5,3.8,1,1.7.7,3,1.5,3.8,2.6.8,1.1,1.2,2.4,1.2,3.9s-.3,2-.8,3c-.5,1-1.2,1.9-2.1,2.7-.7.7-1.7,1.4-2.8,2.2-1.1.7-2.2,1.3-3.2,1.8v.2c1,0,1.9,0,2.8-.1.9,0,1.6,0,2.3,0,1.5,0,3.1,0,4.7,0,1.6,0,2.5,0,2.8,0v4.9Z"/>
    <path d="M183.9,27.6c0,1.7-.3,3.3-.9,4.8-.6,1.5-1.6,2.8-2.8,3.8-1.1,1-2.4,1.7-3.8,2.2s-3.1.8-4.8.8-3.2-.3-4.7-.8c-1.5-.5-2.8-1.2-3.9-2.2-1.2-1.1-2.1-2.4-2.8-3.8s-1-3.1-1-4.8.3-3.2.9-4.6c.6-1.4,1.4-2.6,2.6-3.7,1.1-1,2.4-1.9,3.9-2.4,1.5-.6,3.2-.8,5-.8s3.4.3,4.9.8c1.5.5,2.8,1.3,3.9,2.3,1.2,1.1,2.1,2.3,2.7,3.7.6,1.4.9,3,.9,4.7ZM177.3,27.7c0-1-.2-2-.5-3-.3-.9-.8-1.7-1.5-2.4-.5-.5-1-.8-1.7-1.1-.6-.3-1.4-.4-2.2-.4s-1.6.1-2.3.4c-.6.3-1.2.7-1.7,1.1-.6.6-1,1.3-1.4,2.3-.3.9-.5,1.9-.5,2.9s.2,2,.5,2.9c.3.9.8,1.7,1.5,2.4.5.5,1,.8,1.6,1.1s1.3.4,2.1.4,1.5-.1,2.1-.4c.6-.3,1.2-.6,1.7-1.1.6-.6,1.1-1.4,1.5-2.3.4-.9.5-1.9.5-2.9Z"/>
    <path d="M209.1,38.5c-.3,0-1.8,0-4.5,0-2.6,0-4.7,0-6.2,0s-3.7,0-6,0c-2.2,0-3.6,0-4.1,0l-1.7-4c1.1-.5,2.2-1,3.4-1.6,1.1-.6,2.3-1.2,3.4-1.9,1.7-1,2.9-1.9,3.7-2.8.8-.9,1.2-1.9,1.2-3s-.2-1.4-.6-1.9-1-.9-1.7-1.2c-.6-.2-1.4-.4-2.2-.5-.9-.1-1.8-.2-2.7-.2s-1.2,0-1.8,0c-.6,0-1.1,0-1.5,0l.7-5.1c.4,0,1,0,1.6,0,.6,0,1.2,0,1.8,0,1.6,0,3.2,0,4.5.3,1.4.2,2.6.5,3.8,1,1.7.7,3,1.5,3.8,2.6.8,1.1,1.2,2.4,1.2,3.9s-.3,2-.8,3c-.5,1-1.2,1.9-2.1,2.7-.7.7-1.7,1.4-2.8,2.2-1.1.7-2.2,1.3-3.2,1.8v.2c1,0,1.9,0,2.8-.1.9,0,1.6,0,2.3,0,1.5,0,3.1,0,4.7,0,1.6,0,2.5,0,2.8,0v4.9Z"/>
    <path d="M234.7,29c0,1.4-.3,2.7-.9,4-.6,1.3-1.4,2.4-2.4,3.2-1.1,1-2.4,1.7-3.8,2.2s-2.9.8-4.6.8-3.2-.2-4.7-.7c-1.4-.5-2.7-1.2-3.9-2.2-.9-.8-1.7-1.8-2.3-3-.6-1.2-.9-2.6-.9-4.1s.3-3,.8-4.4c.5-1.4,1.6-3.2,3.4-5.4,1.5-1.8,3.2-3.8,5.2-5.8,2-2,3.6-3.7,4.9-5.1l5.7,3.4c-1.1,1.1-2.4,2.3-3.8,3.7-1.4,1.4-2.6,2.6-3.5,3.5h0c.9.2,1.9.5,3,.8,1.1.4,2.2.8,3.1,1.3,1.6.9,2.8,2,3.5,3.3s1.2,2.8,1.2,4.5ZM228.1,28.7c0-1.1-.3-2.1-.9-3-.6-.9-1.4-1.6-2.3-2.1-.7-.4-1.5-.8-2.3-1-.8-.2-1.5-.4-2.1-.5-.8.8-1.4,1.8-1.9,2.9-.5,1.1-.8,2.3-.8,3.5s.1,1.6.4,2.4c.3.7.6,1.4,1.1,1.9.5.5,1,.9,1.7,1.1.6.2,1.3.4,2,.4s1.4-.1,2.1-.4c.7-.3,1.2-.7,1.7-1.2.4-.5.8-1.1,1-1.7.2-.7.4-1.4.4-2.2Z"/>
  </g>
</svg>